<?xml version="1.0" standalone="no"?>
<!DOCTYPE svg PUBLIC "-//W3C//DTD SVG 20010904//EN"
 "http://www.w3.org/TR/2001/REC-SVG-20010904/DTD/svg10.dtd">
<svg version="1.0" xmlns="http://www.w3.org/2000/svg"
 width="512.000000pt" height="512.000000pt" viewBox="0 0 512.000000 512.000000"
 preserveAspectRatio="xMidYMid meet">
<metadata>
Created by potrace 1.16, written by Peter Selinger 2001-2019
</metadata>
<g transform="translate(0.000000,512.000000) scale(0.100000,-0.100000)"
fill="#000000" stroke="none">
<path d="M66 4791 c-46 -31 -66 -69 -66 -131 0 -62 20 -100 66 -131 27 -18 54
-19 444 -19 l415 0 268 -1208 c147 -664 267 -1211 267 -1217 0 -5 -23 -23 -51
-40 -67 -39 -132 -114 -171 -195 -27 -56 -32 -79 -36 -166 -3 -79 -1 -113 13
-155 46 -143 152 -251 292 -300 45 -15 85 -19 202 -20 l146 0 -52 -19 c-188
-67 -303 -231 -303 -430 0 -259 191 -450 450 -450 259 0 450 191 450 450 0
199 -115 363 -303 430 -51 18 -40 19 913 19 953 0 964 -1 913 -19 -188 -67
-303 -231 -303 -430 0 -259 191 -450 450 -450 259 0 450 191 450 450 0 200
-115 363 -304 430 l-51 19 130 0 c110 1 134 4 159 20 46 31 66 69 66 131 0 59
-19 98 -61 128 -22 16 -130 17 -1434 22 l-1410 5 -35 22 c-95 59 -94 198 2
250 31 17 107 18 1439 21 l1407 2 41 38 41 37 305 1067 c206 720 305 1083 305
1115 0 32 -7 57 -22 80 -47 68 106 63 -1937 63 l-1851 0 -5 23 c-3 12 -27 121
-54 242 -27 121 -54 232 -59 246 -6 15 -28 40 -49 58 l-38 31 -505 0 c-478 0
-507 -1 -534 -19z m4694 -893 c-1 -7 -115 -411 -254 -898 l-253 -885 -1239 -2
-1239 -3 -198 893 c-109 490 -197 895 -197 900 0 4 761 7 1690 7 1346 0 1690
-3 1690 -12z m-2736 -3017 c43 -29 66 -70 66 -121 0 -80 -60 -140 -140 -140
-80 0 -140 60 -140 140 0 80 60 140 140 140 27 0 56 -8 74 -19z m2120 0 c43
-29 66 -70 66 -121 0 -80 -60 -140 -140 -140 -80 0 -140 60 -140 140 0 80 60
140 140 140 27 0 56 -8 74 -19z"/>
</g>
</svg>
